# xmcd
#
# Track frame offsets: 
#        150
#        36353
#        77790
#        119662
#
# Disc length: 2017 seconds
#
# Revision: 2
# Processed by: cddbd v1.5.2PL0 Copyright (c) Steve Scherf et al.
# Submitted via: ExactAudioCopyFreeDBPlugin 1.0
#
DISCID=3107df04
DTITLE=Fuse one - Silk
DYEAR=1981
DGENRE=Jazz
TTITLE0=Silk
TTITLE1=In celebration of the human spirit
TTITLE2=Sunwalk
TTITLE3=Hot fire
EXTD=YEAR: 1981
EXTT0=
EXTT1=
EXTT2=
EXTT3=
PLAYORDER=
